<mxfile host="app.diagrams.net" modified="2022-06-27T09:44:55.976Z" agent="5.0 (Windows NT 10.0; Win64; x64) AppleWebKit/537.36 (KHTML, like Gecko) Chrome/102.0.0.0 Safari/537.36" etag="5e2bYx778Mwz99rWml9P" version="19.0.3" type="github">
  <diagram id="lb49zGArCtAXKEoiKGBM" name="Page-1">
    <mxGraphModel dx="2249" dy="761" grid="1" gridSize="10" guides="1" tooltips="1" connect="1" arrows="1" fold="1" page="1" pageScale="1" pageWidth="827" pageHeight="1169" math="0" shadow="0">
      <root>
        <mxCell id="0" />
        <mxCell id="1" parent="0" />
        <mxCell id="q0r__lYniVPvZSONTL-B-3" value="" style="edgeStyle=orthogonalEdgeStyle;rounded=0;orthogonalLoop=1;jettySize=auto;html=1;fontStyle=1;fontSize=13;" edge="1" parent="1" source="q0r__lYniVPvZSONTL-B-1" target="q0r__lYniVPvZSONTL-B-2">
          <mxGeometry relative="1" as="geometry" />
        </mxCell>
        <mxCell id="q0r__lYniVPvZSONTL-B-4" value="sendmessage" style="edgeLabel;html=1;align=center;verticalAlign=middle;resizable=0;points=[];fontStyle=1;fontSize=13;" vertex="1" connectable="0" parent="q0r__lYniVPvZSONTL-B-3">
          <mxGeometry x="-0.26" y="-5" relative="1" as="geometry">
            <mxPoint as="offset" />
          </mxGeometry>
        </mxCell>
        <mxCell id="q0r__lYniVPvZSONTL-B-1" value="上游" style="text;html=1;align=center;verticalAlign=middle;resizable=0;points=[];autosize=1;strokeColor=none;fillColor=none;fontStyle=1;fontSize=13;" vertex="1" parent="1">
          <mxGeometry y="200" width="40" height="20" as="geometry" />
        </mxCell>
        <mxCell id="q0r__lYniVPvZSONTL-B-8" style="edgeStyle=orthogonalEdgeStyle;rounded=0;orthogonalLoop=1;jettySize=auto;html=1;entryX=0;entryY=0.5;entryDx=0;entryDy=0;entryPerimeter=0;fontStyle=1;fontSize=13;" edge="1" parent="1" source="q0r__lYniVPvZSONTL-B-2" target="q0r__lYniVPvZSONTL-B-5">
          <mxGeometry relative="1" as="geometry" />
        </mxCell>
        <mxCell id="q0r__lYniVPvZSONTL-B-22" style="edgeStyle=elbowEdgeStyle;rounded=0;orthogonalLoop=1;jettySize=auto;html=1;fontStyle=1;fontSize=13;" edge="1" parent="1" source="q0r__lYniVPvZSONTL-B-2" target="q0r__lYniVPvZSONTL-B-23">
          <mxGeometry relative="1" as="geometry">
            <mxPoint x="280" y="310" as="targetPoint" />
            <Array as="points">
              <mxPoint x="220" y="320" />
              <mxPoint x="220" y="290" />
              <mxPoint x="370" y="350" />
            </Array>
          </mxGeometry>
        </mxCell>
        <mxCell id="q0r__lYniVPvZSONTL-B-2" value="direct exchange" style="whiteSpace=wrap;html=1;fontStyle=1;fontSize=13;" vertex="1" parent="1">
          <mxGeometry x="180" y="185" width="250" height="50" as="geometry" />
        </mxCell>
        <mxCell id="q0r__lYniVPvZSONTL-B-10" value="" style="edgeStyle=orthogonalEdgeStyle;rounded=0;orthogonalLoop=1;jettySize=auto;html=1;fontStyle=1;fontSize=13;" edge="1" parent="1" source="q0r__lYniVPvZSONTL-B-5" target="q0r__lYniVPvZSONTL-B-9">
          <mxGeometry relative="1" as="geometry" />
        </mxCell>
        <mxCell id="q0r__lYniVPvZSONTL-B-11" value="listen for message" style="edgeLabel;html=1;align=center;verticalAlign=middle;resizable=0;points=[];fontStyle=1;fontSize=13;" vertex="1" connectable="0" parent="q0r__lYniVPvZSONTL-B-10">
          <mxGeometry x="-0.3692" y="-3" relative="1" as="geometry">
            <mxPoint x="38" y="-3" as="offset" />
          </mxGeometry>
        </mxCell>
        <mxCell id="q0r__lYniVPvZSONTL-B-5" value="nomral queue" style="strokeWidth=2;html=1;shape=mxgraph.flowchart.direct_data;whiteSpace=wrap;fontStyle=1;fontSize=13;" vertex="1" parent="1">
          <mxGeometry x="760" y="180" width="120" height="60" as="geometry" />
        </mxCell>
        <mxCell id="q0r__lYniVPvZSONTL-B-6" value="&lt;span style=&quot;color: rgb(0, 0, 0); font-family: Helvetica; font-size: 13px; font-style: normal; font-variant-ligatures: normal; font-variant-caps: normal; letter-spacing: normal; orphans: 2; text-align: center; text-indent: 0px; text-transform: none; widows: 2; word-spacing: 0px; -webkit-text-stroke-width: 0px; background-color: rgb(248, 249, 250); text-decoration-thickness: initial; text-decoration-style: initial; text-decoration-color: initial; float: none; display: inline !important;&quot;&gt;ha.vh_copportal.q_asynMessage_request&lt;/span&gt;" style="text;whiteSpace=wrap;html=1;fontStyle=1;fontSize=13;" vertex="1" parent="1">
          <mxGeometry x="690" y="150" width="250" height="30" as="geometry" />
        </mxCell>
        <mxCell id="q0r__lYniVPvZSONTL-B-7" value="&lt;span style=&quot;color: rgb(0, 0, 0); font-family: Helvetica; font-size: 13px; font-style: normal; font-variant-ligatures: normal; font-variant-caps: normal; letter-spacing: normal; orphans: 2; text-align: center; text-indent: 0px; text-transform: none; widows: 2; word-spacing: 0px; -webkit-text-stroke-width: 0px; background-color: rgb(248, 249, 250); text-decoration-thickness: initial; text-decoration-style: initial; text-decoration-color: initial; float: none; display: inline !important;&quot;&gt;ha.vh_copportal.q_asynMessage_request_direct_exchange&lt;/span&gt;" style="text;whiteSpace=wrap;html=1;fontStyle=1;fontSize=13;" vertex="1" parent="1">
          <mxGeometry x="160" y="155" width="340" height="30" as="geometry" />
        </mxCell>
        <mxCell id="q0r__lYniVPvZSONTL-B-21" style="edgeStyle=elbowEdgeStyle;rounded=0;orthogonalLoop=1;jettySize=auto;html=1;entryX=0.315;entryY=1.133;entryDx=0;entryDy=0;entryPerimeter=0;fontStyle=1;fontSize=13;" edge="1" parent="1" source="q0r__lYniVPvZSONTL-B-9" target="q0r__lYniVPvZSONTL-B-7">
          <mxGeometry relative="1" as="geometry">
            <mxPoint x="250" y="50" as="targetPoint" />
            <Array as="points">
              <mxPoint x="300" y="100" />
              <mxPoint x="1270" y="100" />
            </Array>
          </mxGeometry>
        </mxCell>
        <mxCell id="q0r__lYniVPvZSONTL-B-9" value="异步消息系统" style="whiteSpace=wrap;html=1;strokeWidth=2;fontStyle=1;fontSize=13;" vertex="1" parent="1">
          <mxGeometry x="1080" y="180" width="120" height="60" as="geometry" />
        </mxCell>
        <mxCell id="q0r__lYniVPvZSONTL-B-12" value="下游" style="text;html=1;align=center;verticalAlign=middle;resizable=0;points=[];autosize=1;strokeColor=none;fillColor=none;fontStyle=1;fontSize=13;" vertex="1" parent="1">
          <mxGeometry y="400" width="40" height="20" as="geometry" />
        </mxCell>
        <mxCell id="q0r__lYniVPvZSONTL-B-19" style="edgeStyle=elbowEdgeStyle;rounded=0;orthogonalLoop=1;jettySize=auto;html=1;fontStyle=1;fontSize=13;" edge="1" parent="1" source="q0r__lYniVPvZSONTL-B-13" target="q0r__lYniVPvZSONTL-B-18">
          <mxGeometry relative="1" as="geometry" />
        </mxCell>
        <mxCell id="q0r__lYniVPvZSONTL-B-13" value="topic exchange" style="whiteSpace=wrap;html=1;fontStyle=1;fontSize=13;" vertex="1" parent="1">
          <mxGeometry x="560" y="380" width="250" height="60" as="geometry" />
        </mxCell>
        <mxCell id="q0r__lYniVPvZSONTL-B-16" style="edgeStyle=elbowEdgeStyle;rounded=0;orthogonalLoop=1;jettySize=auto;html=1;entryX=1;entryY=0.5;entryDx=0;entryDy=0;fontStyle=1;fontSize=13;" edge="1" parent="1" source="q0r__lYniVPvZSONTL-B-9" target="q0r__lYniVPvZSONTL-B-13">
          <mxGeometry relative="1" as="geometry">
            <mxPoint x="960" y="520" as="targetPoint" />
            <mxPoint x="1140" y="240" as="sourcePoint" />
            <Array as="points">
              <mxPoint x="1110" y="270" />
              <mxPoint x="1160" y="320" />
              <mxPoint x="1170" y="480" />
            </Array>
          </mxGeometry>
        </mxCell>
        <mxCell id="q0r__lYniVPvZSONTL-B-17" value="send response" style="edgeLabel;html=1;align=center;verticalAlign=middle;resizable=0;points=[];fontStyle=1;fontSize=13;" vertex="1" connectable="0" parent="q0r__lYniVPvZSONTL-B-16">
          <mxGeometry x="0.5345" relative="1" as="geometry">
            <mxPoint x="71" as="offset" />
          </mxGeometry>
        </mxCell>
        <mxCell id="q0r__lYniVPvZSONTL-B-20" style="edgeStyle=elbowEdgeStyle;rounded=0;orthogonalLoop=1;jettySize=auto;html=1;fontStyle=1;fontSize=13;" edge="1" parent="1" source="q0r__lYniVPvZSONTL-B-18">
          <mxGeometry relative="1" as="geometry">
            <mxPoint x="40" y="410" as="targetPoint" />
          </mxGeometry>
        </mxCell>
        <mxCell id="q0r__lYniVPvZSONTL-B-33" value="get response" style="edgeLabel;html=1;align=center;verticalAlign=middle;resizable=0;points=[];fontStyle=1;fontSize=13;" vertex="1" connectable="0" parent="q0r__lYniVPvZSONTL-B-20">
          <mxGeometry x="0.2222" y="3" relative="1" as="geometry">
            <mxPoint as="offset" />
          </mxGeometry>
        </mxCell>
        <mxCell id="q0r__lYniVPvZSONTL-B-18" value="nomral queue" style="strokeWidth=2;html=1;shape=mxgraph.flowchart.direct_data;whiteSpace=wrap;fontStyle=1;fontSize=13;" vertex="1" parent="1">
          <mxGeometry x="220" y="380" width="120" height="60" as="geometry" />
        </mxCell>
        <mxCell id="q0r__lYniVPvZSONTL-B-24" style="edgeStyle=elbowEdgeStyle;rounded=0;orthogonalLoop=1;jettySize=auto;html=1;entryX=0.84;entryY=1.1;entryDx=0;entryDy=0;entryPerimeter=0;fontStyle=1;fontSize=13;" edge="1" parent="1" source="q0r__lYniVPvZSONTL-B-23" target="q0r__lYniVPvZSONTL-B-2">
          <mxGeometry relative="1" as="geometry">
            <Array as="points">
              <mxPoint x="390" y="220" />
            </Array>
          </mxGeometry>
        </mxCell>
        <mxCell id="q0r__lYniVPvZSONTL-B-28" value="timeout&lt;br style=&quot;font-size: 13px;&quot;&gt;" style="edgeLabel;html=1;align=center;verticalAlign=middle;resizable=0;points=[];fontStyle=1;fontSize=13;" vertex="1" connectable="0" parent="q0r__lYniVPvZSONTL-B-24">
          <mxGeometry x="0.0476" y="-4" relative="1" as="geometry">
            <mxPoint as="offset" />
          </mxGeometry>
        </mxCell>
        <mxCell id="q0r__lYniVPvZSONTL-B-23" value="delay queue" style="strokeWidth=2;html=1;shape=mxgraph.flowchart.direct_data;whiteSpace=wrap;fontStyle=1;fontSize=13;" vertex="1" parent="1">
          <mxGeometry x="245" y="290" width="120" height="60" as="geometry" />
        </mxCell>
        <mxCell id="q0r__lYniVPvZSONTL-B-26" value="throw new BizSysException(&quot;result&quot;) , bizSysException.setRetry(true)" style="text;html=1;align=center;verticalAlign=middle;resizable=0;points=[];autosize=1;strokeColor=none;fillColor=none;fontStyle=1;fontSize=13;" vertex="1" parent="1">
          <mxGeometry x="675" y="70" width="450" height="20" as="geometry" />
        </mxCell>
        <mxCell id="q0r__lYniVPvZSONTL-B-27" value="ha.vh_asynMessage.q_process_delay_trigger" style="text;html=1;align=center;verticalAlign=middle;resizable=0;points=[];autosize=1;strokeColor=none;fillColor=none;fontStyle=1;fontSize=13;" vertex="1" parent="1">
          <mxGeometry x="-60" y="270" width="300" height="20" as="geometry" />
        </mxCell>
        <mxCell id="q0r__lYniVPvZSONTL-B-30" value="&lt;div style=&quot;font-size: 13px;&quot;&gt;&amp;nbsp;channel.basicPublish(RabbitExchangeConstant.Q_REQUST_DIRECT_EXCHANGE,// 交换机&lt;/div&gt;&lt;div style=&quot;font-size: 13px;&quot;&gt;&amp;nbsp; &amp;nbsp; &amp;nbsp; &amp;nbsp; &amp;nbsp; RabbitRouteKeyConstant.Q_REQUEST_DELAY_TRIGGER,// 路由键&lt;/div&gt;&lt;div style=&quot;font-size: 13px;&quot;&gt;&amp;nbsp; &amp;nbsp; &amp;nbsp; &amp;nbsp; &amp;nbsp; converBasicProperties(amqMessage.getMessageProperties(), ttl,retryTimes-1), // 属性&lt;/div&gt;&lt;div style=&quot;font-size: 13px;&quot;&gt;&amp;nbsp; &amp;nbsp; &amp;nbsp; &amp;nbsp; &amp;nbsp; amqMessage.getBody()); // 放入了新重试次数的body&lt;/div&gt;" style="text;html=1;align=center;verticalAlign=middle;resizable=0;points=[];autosize=1;strokeColor=none;fillColor=none;fontStyle=1;fontSize=13;" vertex="1" parent="1">
          <mxGeometry x="124" y="25" width="580" height="70" as="geometry" />
        </mxCell>
        <mxCell id="q0r__lYniVPvZSONTL-B-31" value="ha.vh_copportal.q_asynMessage_request_trigger" style="text;html=1;align=center;verticalAlign=middle;resizable=0;points=[];autosize=1;strokeColor=none;fillColor=none;fontStyle=1;fontSize=13;" vertex="1" parent="1">
          <mxGeometry x="430" y="215" width="320" height="20" as="geometry" />
        </mxCell>
        <mxCell id="q0r__lYniVPvZSONTL-B-32" value="ha.vh_copportal.q_asynMessage_response_topic_trigger" style="text;html=1;align=center;verticalAlign=middle;resizable=0;points=[];autosize=1;strokeColor=none;fillColor=none;fontStyle=1;fontSize=13;" vertex="1" parent="1">
          <mxGeometry x="265" y="460" width="370" height="20" as="geometry" />
        </mxCell>
      </root>
    </mxGraphModel>
  </diagram>
</mxfile>
